<svg width="18" height="18" viewBox="0 0 18 18" fill="none" xmlns="http://www.w3.org/2000/svg">
<path d="M9.00007 14.52L4.85007 17.02C4.66674 17.1367 4.47507 17.1867 4.27507 17.17C4.07507 17.1533 3.90007 17.0867 3.75007 16.97C3.60007 16.8533 3.4834 16.7077 3.40007 16.533C3.31674 16.3577 3.30007 16.1617 3.35007 15.945L4.45007 11.22L0.77507 8.04501C0.608404 7.89501 0.504404 7.72401 0.46307 7.53201C0.42107 7.34067 0.433404 7.15334 0.50007 6.97001C0.566737 6.78667 0.666737 6.63667 0.80007 6.52001C0.933404 6.40334 1.11674 6.32834 1.35007 6.29501L6.20007 5.87001L8.07507 1.42001C8.1584 1.22001 8.28774 1.07001 8.46307 0.970007C8.63774 0.870007 8.81674 0.820007 9.00007 0.820007C9.1834 0.820007 9.36274 0.870007 9.53807 0.970007C9.71274 1.07001 9.84174 1.22001 9.92507 1.42001L11.8001 5.87001L16.6501 6.29501C16.8834 6.32834 17.0667 6.40334 17.2001 6.52001C17.3334 6.63667 17.4334 6.78667 17.5001 6.97001C17.5667 7.15334 17.5794 7.34067 17.5381 7.53201C17.4961 7.72401 17.3917 7.89501 17.2251 8.04501L13.5501 11.22L14.6501 15.945C14.7001 16.1617 14.6834 16.3577 14.6001 16.533C14.5167 16.7077 14.4001 16.8533 14.2501 16.97C14.1001 17.0867 13.9251 17.1533 13.7251 17.17C13.5251 17.1867 13.3334 17.1367 13.1501 17.02L9.00007 14.52Z" fill="url(#paint0_linear_101_991)"/>
<defs>
<linearGradient id="paint0_linear_101_991" x1="0.438721" y1="0.820007" x2="18.9006" y2="17.2076" gradientUnits="userSpaceOnUse">
<stop stop-color="#FFEE58"/>
<stop offset="1" stop-color="#FF8F00"/>
</linearGradient>
</defs>
</svg>
